<?xml version="1.0" encoding="utf-8"?>
<!-- Generator: Adobe Illustrator 16.0.0, SVG Export Plug-In . SVG Version: 6.00 Build 0)  -->
<!DOCTYPE svg PUBLIC "-//W3C//DTD SVG 1.1//EN" "http://www.w3.org/Graphics/SVG/1.1/DTD/svg11.dtd">
<svg version="1.1" id="Layer_1" xmlns="http://www.w3.org/2000/svg" xmlns:xlink="http://www.w3.org/1999/xlink" x="0px" y="0px"
	 width="505.5px" height="132.211px" viewBox="0 0 505.5 132.211" enable-background="new 0 0 505.5 132.211" xml:space="preserve">
<g>
	<g>
		<g>
			<path fill="#1D1D1B" d="M75.513,109.309c0.162-0.34,0.336-0.545,0.525-0.688c0.222-0.076,0.505-0.185,0.92-0.185
				c0.604,0,1.008,0.136,1.179,0.341c0.173,0.27,0.266,0.68,0.277,1.352l0.07,3.033v0.172c0,0.58-0.14,1.043-0.392,1.258
				c-0.217,0.279-0.636,0.357-1.226,0.357c-0.751,0-1.292-0.377-1.682-1.191c-0.03-0.072-0.091-0.197-0.108-0.242
				c-0.331-0.662-0.767-1.158-1.305-1.494c-0.569-0.332-1.202-0.498-1.961-0.498c-0.94,0-1.704,0.264-2.291,0.662
				c-0.587,0.461-0.865,1.002-0.865,1.686c0,0.92,1.345,1.714,3.964,2.252c0.476,0.125,0.821,0.166,1.083,0.201
				c1.99,0.467,3.443,1.142,4.356,2.023c0.882,0.881,1.323,2.096,1.323,3.711c0,1.906-0.633,3.344-1.929,4.379
				c-1.328,1.102-3.174,1.617-5.623,1.617c-0.947,0-1.797-0.104-2.554-0.248c-0.724-0.076-1.463-0.264-2.156-0.555
				c-0.17,0.303-0.354,0.488-0.589,0.563c-0.199,0.136-0.518,0.238-0.888,0.238c-0.668,0-1.114-0.144-1.375-0.429
				c-0.261-0.221-0.407-0.692-0.414-1.28l-0.071-3.713v-0.172c0-0.687,0.146-1.181,0.399-1.412c0.256-0.3,0.694-0.449,1.318-0.449
				c0.679,0,1.263,0.502,1.709,1.498c0.099,0.217,0.182,0.396,0.252,0.535c0.416,0.825,0.995,1.389,1.704,1.834
				c0.71,0.375,1.621,0.562,2.663,0.562c0.953,0,1.71-0.188,2.233-0.562c0.56-0.445,0.819-0.984,0.819-1.688
				c0-1.15-1.201-1.998-3.64-2.55c-0.708-0.166-1.287-0.319-1.709-0.393c-2.004-0.593-3.428-1.197-4.205-2.021
				c-0.778-0.82-1.15-1.889-1.15-3.27c0-1.824,0.642-3.244,1.995-4.402c1.353-1.098,3.078-1.707,5.213-1.707
				c0.698,0,1.391,0.111,2.076,0.268C74.149,108.798,74.833,109.062,75.513,109.309z"/>
			<path fill="#1D1D1B" d="M94.024,108.438c2.565,0,4.689,0.961,6.337,2.752c1.679,1.855,2.484,4.217,2.484,7.025
				c0,2.887-0.802,5.254-2.441,7.1c-1.674,1.781-3.766,2.74-6.38,2.74c-2.527,0-4.648-0.963-6.336-2.818
				c-1.651-1.791-2.493-4.151-2.493-7.021c0-2.812,0.837-5.181,2.479-7.033C89.318,109.398,91.445,108.438,94.024,108.438z
				 M94.024,112.126c-1.318,0-2.396,0.526-3.166,1.594c-0.732,1.063-1.134,2.58-1.134,4.496c0,1.979,0.4,3.502,1.17,4.569
				c0.771,1.072,1.815,1.672,3.13,1.672c1.354,0,2.402-0.6,3.169-1.668c0.774-1.062,1.176-2.59,1.176-4.573
				c0-1.916-0.4-3.433-1.138-4.496C96.466,112.652,95.385,112.126,94.024,112.126z"/>
			<path fill="#1D1D1B" d="M122.154,112.468v8.621v0.312c0,1.389-0.089,2.408-0.3,3.057c-0.179,0.582-0.466,1.121-0.893,1.623
				c-0.571,0.654-1.34,1.148-2.308,1.479c-0.999,0.328-2.152,0.496-3.56,0.496c-0.96,0-1.897-0.123-2.783-0.305
				c-0.919-0.181-1.783-0.486-2.624-0.849c-0.447-0.197-0.764-0.492-0.885-0.832c-0.151-0.34-0.228-0.869-0.228-1.594v-3.236
				c0-0.883,0.145-1.533,0.403-1.881c0.261-0.348,0.705-0.522,1.365-0.522c0.934,0,1.446,0.68,1.538,2.051
				c0.006,0.215,0.016,0.392,0.027,0.533c0.144,1.209,0.416,2.043,0.851,2.45c0.434,0.472,1.128,0.675,2.113,0.675
				c1.159,0,2.006-0.263,2.502-0.914c0.495-0.652,0.712-1.822,0.712-3.438v-7.726h-2.606c-0.731,0-1.243-0.147-1.533-0.449
				c-0.32-0.233-0.449-0.702-0.449-1.334c0-0.578,0.127-1.047,0.439-1.271c0.282-0.291,0.796-0.438,1.543-0.438h7.977
				c0.715,0,1.227,0.146,1.541,0.438c0.281,0.225,0.438,0.692,0.438,1.271c0,0.632-0.158,1.101-0.448,1.334
				c-0.321,0.302-0.832,0.449-1.53,0.449H122.154z"/>
			<path fill="#1D1D1B" d="M135.71,112.468v8.133c0,1.481,0.255,2.519,0.765,3.093c0.507,0.635,1.356,0.957,2.511,0.957
				c1.187,0,2.034-0.322,2.549-0.964c0.513-0.579,0.769-1.606,0.769-3.086v-8.133h-0.253c-0.537,0-0.963-0.156-1.271-0.47
				c-0.273-0.309-0.43-0.706-0.43-1.313c0-0.578,0.158-1.047,0.473-1.28c0.28-0.302,0.784-0.449,1.479-0.449h3.924
				c0.699,0,1.207,0.147,1.489,0.449c0.313,0.233,0.472,0.703,0.472,1.28c0,0.607-0.153,1.007-0.43,1.313
				c-0.308,0.312-0.731,0.47-1.271,0.47h-0.261v8.094c0,2.607-0.58,4.505-1.704,5.687c-1.125,1.184-2.972,1.809-5.475,1.809
				c-2.642,0-4.525-0.617-5.657-1.789c-1.132-1.102-1.714-3.008-1.714-5.705v-8.094h-0.261c-0.578,0-1.005-0.156-1.285-0.469
				c-0.312-0.309-0.436-0.707-0.436-1.314c0-0.578,0.127-1.047,0.449-1.281c0.322-0.301,0.832-0.449,1.531-0.449h4.034
				c0.693,0,1.203,0.148,1.526,0.449c0.293,0.234,0.453,0.703,0.453,1.281c0,0.607-0.124,1.006-0.438,1.314
				c-0.282,0.312-0.711,0.469-1.289,0.469L135.71,112.468L135.71,112.468z"/>
			<path fill="#1D1D1B" d="M189.072,117.68c1.162,0.453,1.972,1.004,2.529,1.715c0.525,0.711,0.788,1.674,0.788,2.762
				c0,0.98-0.242,1.842-0.688,2.654c-0.446,0.744-1.114,1.402-1.971,1.908c-0.507,0.309-1.08,0.506-1.694,0.654
				c-0.614,0.084-1.482,0.186-2.645,0.186h-1.304h-6.854c-0.688,0-1.188-0.146-1.47-0.447c-0.313-0.233-0.458-0.701-0.458-1.281
				c0-0.602,0.138-0.991,0.411-1.301c0.305-0.246,0.69-0.397,1.256-0.397h0.261v-11.664h-0.261c-0.563,0-0.951-0.156-1.256-0.47
				c-0.273-0.309-0.411-0.707-0.411-1.313c0-0.569,0.146-1.043,0.462-1.274c0.285-0.304,0.786-0.455,1.466-0.455h7.198
				c2.213,0,3.867,0.465,5.031,1.315c1.131,0.855,1.713,2.089,1.713,3.763c0,0.768-0.174,1.537-0.553,2.114
				C190.278,116.792,189.76,117.304,189.072,117.68z M181.097,112.343v3.942h2.124c1.283,0,2.17-0.157,2.724-0.475
				c0.524-0.258,0.785-0.766,0.785-1.537c0-0.684-0.246-1.119-0.734-1.443c-0.457-0.323-1.229-0.487-2.312-0.487H181.097z
				 M181.097,119.408v4.781h2.334c1.68,0,2.861-0.176,3.521-0.533c0.667-0.358,1.009-1,1.009-1.852c0-0.865-0.299-1.439-0.961-1.799
				c-0.66-0.422-1.787-0.598-3.406-0.598H181.097L181.097,119.408z"/>
			<path fill="#1D1D1B" d="M214.151,124.132h0.265c0.578,0,1.005,0.151,1.283,0.397c0.312,0.31,0.436,0.699,0.436,1.301
				c0,0.58-0.128,1.048-0.449,1.281c-0.321,0.301-0.833,0.447-1.533,0.447h-4.711c-0.706,0-1.219-0.146-1.535-0.443
				c-0.284-0.229-0.443-0.701-0.443-1.285c0-0.633,0.159-1.098,0.443-1.323c0.316-0.293,0.829-0.375,1.535-0.375h0.536l-0.626-1.851
				h-6.764l-0.676,1.851h0.564c0.7,0,1.21,0.082,1.5,0.379c0.321,0.295,0.48,0.69,0.48,1.319c0,0.58-0.159,1.048-0.48,1.281
				c-0.29,0.301-0.8,0.447-1.5,0.447h-4.063c-0.708,0-1.223-0.146-1.505-0.447c-0.317-0.233-0.479-0.701-0.479-1.281
				c0-0.602,0.156-0.991,0.436-1.301c0.312-0.246,0.739-0.397,1.283-0.397h0.265l4.193-11.664h-1.23
				c-0.699,0-1.21-0.147-1.532-0.449c-0.322-0.233-0.449-0.702-0.449-1.334c0-0.578,0.127-1.047,0.449-1.28
				c0.322-0.302,0.833-0.449,1.532-0.449h5.852c0.934,0,1.6,0.508,1.963,1.518v0.031L214.151,124.132z M205.943,112.468
				l-2.254,6.567h4.54L205.943,112.468z"/>
			<path fill="#1D1D1B" d="M232.631,119.016c0.266,0.166,0.527,0.488,0.787,0.889c0.061,0.103,0.082,0.138,0.101,0.162l2.56,4.064
				h0.171h0.325c0.604,0,1.049,0.152,1.368,0.395c0.291,0.305,0.45,0.695,0.45,1.305c0,0.58-0.159,1.048-0.45,1.281
				c-0.319,0.301-0.831,0.447-1.53,0.447h-1.909c-0.731,0-1.271-0.32-1.681-0.961l-0.028-0.02l-3.843-5.873
				c-0.153-0.271-0.324-0.449-0.506-0.521c-0.182-0.141-0.385-0.18-0.598-0.18h-1.465v4.125h0.254c0.544,0,0.971,0.151,1.277,0.397
				c0.274,0.31,0.43,0.699,0.43,1.301c0,0.58-0.156,1.048-0.44,1.281c-0.312,0.301-0.819,0.447-1.521,0.447h-4.033
				c-0.727,0-1.2-0.146-1.517-0.447c-0.285-0.233-0.445-0.701-0.445-1.281c0-0.602,0.155-0.991,0.431-1.301
				c0.273-0.246,0.699-0.397,1.27-0.397h0.263v-11.664h-0.263c-0.564,0-0.985-0.156-1.265-0.474
				c-0.279-0.313-0.436-0.707-0.436-1.311c0-0.57,0.16-1.043,0.449-1.275c0.322-0.303,0.825-0.455,1.513-0.455h7.208
				c2.217,0,3.874,0.466,5.035,1.324c1.129,0.857,1.708,2.101,1.708,3.793c0,1.18-0.326,2.201-0.979,3.055
				C234.705,117.98,233.817,118.636,232.631,119.016z M226.202,112.343v4.44h2.09c1.33,0,2.222-0.172,2.739-0.512
				c0.519-0.34,0.798-0.889,0.798-1.705c0-0.809-0.232-1.354-0.722-1.701c-0.456-0.352-1.225-0.522-2.3-0.522H226.202z"/>
			<path fill="#1D1D1B" d="M275.726,110.503c0.161-0.025,0.304-0.046,0.362-0.056c0.122-0.01,0.178-0.014,0.295-0.014
				c0.336,0,0.574,0.08,0.846,0.379c0.201,0.293,0.336,0.633,0.336,1.014c0,0.527-0.173,1.015-0.52,1.4
				c-0.345,0.453-0.784,0.645-1.178,0.645c-0.312,0-0.8-0.186-1.398-0.62c-0.665-0.365-1.188-0.556-1.627-0.556
				c-0.363,0-0.681,0.129-0.888,0.326c-0.21,0.195-0.346,0.498-0.346,0.85c0,0.402,0.203,0.929,0.68,1.574
				c0.122,0.127,0.165,0.183,0.189,0.287l3.75,5.211c0.146-0.356,0.298-0.848,0.396-1.412c0.334-1.332,0.954-1.994,1.792-1.994
				h0.546h0.657c0.333,0,0.565,0.156,0.771,0.468c0.268,0.309,0.34,0.668,0.34,1.067c0,0.492-0.072,0.851-0.347,1.144
				c-0.205,0.225-0.562,0.391-1.068,0.508c-0.13,0.552-0.221,1.082-0.467,1.582c-0.182,0.5-0.396,0.988-0.708,1.392l0.822,0.989
				h0.229c0.465,0,0.804,0.138,1.012,0.349c0.271,0.276,0.343,0.621,0.343,1.026c0,0.488-0.086,0.843-0.387,1.064
				c-0.304,0.293-0.681,0.434-1.197,0.434h-1.226c-0.343,0-0.632-0.021-0.806-0.129c-0.171-0.043-0.327-0.183-0.404-0.349
				l-0.497-0.659c-0.676,0.508-1.477,0.946-2.337,1.19c-0.862,0.308-1.726,0.461-2.589,0.461c-1.556,0-2.806-0.477-3.811-1.369
				c-1.002-0.959-1.507-2.071-1.507-3.545c0-1.176,0.298-2.2,0.83-3.073c0.533-0.875,1.41-1.738,2.636-2.589l-0.858-1.375
				c-0.21-0.348-0.385-0.735-0.53-1.219c-0.082-0.479-0.185-0.889-0.185-1.348c0-1.234,0.458-2.23,1.308-2.932
				c0.854-0.703,1.982-1.051,3.513-1.051c0.642,0,1.186,0.047,1.694,0.205C274.7,109.938,275.212,110.158,275.726,110.503z
				 M271.143,120.007c-0.516,0.266-0.891,0.685-1.113,1.06c-0.289,0.368-0.435,0.838-0.435,1.34c0,0.606,0.274,1.215,0.683,1.625
				c0.479,0.471,1.025,0.676,1.706,0.676c0.337,0,0.676-0.043,1.021-0.189c0.343-0.15,0.698-0.346,1.133-0.65L271.143,120.007z"/>
			<path fill="#1D1D1B" d="M322.982,112.305h-7.312v3.98h2.814v-0.183c0-0.629,0.079-1.032,0.372-1.346
				c0.229-0.31,0.668-0.4,1.192-0.4c0.487,0,0.854,0.082,1.171,0.378c0.249,0.229,0.404,0.567,0.404,1.016
				c0,0.016,0.002,0.055,0.012,0.193c0.006,0.137,0.008,0.202,0.008,0.342v3.246c0,0.692-0.076,1.196-0.361,1.518
				c-0.221,0.252-0.668,0.408-1.214,0.408c-0.523,0-0.903-0.084-1.203-0.389c-0.296-0.306-0.381-0.691-0.381-1.232v-0.305h-2.815
				v4.657h7.312v-1.868c0-0.693,0.146-1.199,0.377-1.453c0.296-0.318,0.694-0.479,1.33-0.479c0.564,0,1.025,0.16,1.248,0.476
				c0.286,0.248,0.435,0.756,0.435,1.457v3.782c0,0.607-0.135,0.97-0.337,1.148c-0.265,0.186-0.665,0.307-1.327,0.307h-12.826
				c-0.688,0-1.19-0.146-1.438-0.446c-0.313-0.234-0.471-0.701-0.471-1.281c0-0.603,0.15-0.992,0.458-1.301
				c0.237-0.246,0.688-0.398,1.22-0.398h0.231v-11.664h-0.231c-0.523,0-0.974-0.156-1.216-0.473
				c-0.308-0.314-0.462-0.707-0.462-1.312c0-0.569,0.158-1.043,0.478-1.274c0.25-0.304,0.751-0.455,1.433-0.455h12.826
				c0.657,0,1.057,0.125,1.323,0.312c0.201,0.187,0.341,0.554,0.341,1.168v3.478c0,0.701-0.147,1.211-0.438,1.528
				c-0.228,0.322-0.686,0.482-1.243,0.482c-0.636,0-1.034-0.16-1.33-0.486c-0.229-0.321-0.377-0.834-0.377-1.524v-1.605H322.982z"/>
			<path fill="#1D1D1B" d="M348.829,124.132h0.229c0.61,0,1.004,0.151,1.315,0.397c0.312,0.31,0.402,0.699,0.402,1.301
				c0,0.58-0.094,1.048-0.415,1.281c-0.323,0.301-0.833,0.447-1.533,0.447h-4.743c-0.706,0-1.221-0.146-1.536-0.443
				c-0.251-0.229-0.413-0.701-0.413-1.285c0-0.633,0.162-1.098,0.413-1.323c0.315-0.293,0.83-0.375,1.536-0.375h0.6l-0.657-1.851
				h-6.794l-0.679,1.851h0.599c0.698,0,1.21,0.082,1.531,0.379c0.257,0.295,0.417,0.69,0.417,1.319c0,0.58-0.16,1.048-0.417,1.281
				c-0.321,0.301-0.833,0.447-1.531,0.447h-4.063c-0.707,0-1.222-0.146-1.537-0.447c-0.319-0.233-0.479-0.701-0.479-1.281
				c0-0.602,0.154-0.991,0.468-1.301c0.312-0.246,0.708-0.397,1.252-0.397h0.296l4.226-11.664h-1.295
				c-0.7,0-1.212-0.147-1.533-0.449c-0.255-0.233-0.417-0.702-0.417-1.334c0-0.578,0.162-1.047,0.417-1.28
				c0.321-0.302,0.833-0.449,1.533-0.449h5.852c0.965,0,1.631,0.508,1.994,1.518v0.031L348.829,124.132z M340.619,112.468
				l-2.254,6.567h4.507L340.619,112.468z"/>
			<path fill="#1D1D1B" d="M368.686,112.382h-3.265v11.729h2.604c0.696,0,1.201,0.082,1.519,0.385
				c0.318,0.236,0.412,0.701,0.412,1.334c0,0.58-0.094,1.048-0.412,1.281c-0.316,0.301-0.821,0.447-1.519,0.447h-9.28
				c-0.687,0-1.188-0.146-1.507-0.447c-0.313-0.233-0.476-0.701-0.476-1.281c0-0.643,0.156-1.108,0.472-1.34
				c0.316-0.297,0.817-0.379,1.511-0.379h2.607v-11.729h-3.263l-0.126,3.207v0.375c0,0.504-0.083,0.877-0.386,1.182
				c-0.305,0.308-0.671,0.394-1.169,0.394c-0.56,0-1.02-0.092-1.257-0.408c-0.302-0.314-0.452-0.801-0.452-1.396v-0.145l0.172-4.658
				c0.083-0.967,0.162-1.508,0.436-1.689c0.201-0.182,0.681-0.307,1.37-0.307h13.42c0.688,0,1.167,0.125,1.37,0.307
				c0.203,0.183,0.354,0.724,0.44,1.689l0.102,4.658v0.145c0,0.601-0.082,1.092-0.375,1.4c-0.228,0.312-0.686,0.404-1.244,0.404
				c-0.605,0-0.986-0.086-1.205-0.398c-0.284-0.309-0.433-0.824-0.443-1.551L368.686,112.382z"/>
			<path fill="#1D1D1B" d="M390.306,112.305h-7.247v3.98h2.751v-0.183c0-0.629,0.144-1.032,0.37-1.346
				c0.296-0.31,0.67-0.4,1.194-0.4c0.487,0,0.854,0.082,1.172,0.378c0.248,0.229,0.403,0.567,0.403,1.016
				c0,0.016,0.002,0.055,0.009,0.193c0.009,0.137,0.012,0.202,0.012,0.342v3.246c0,0.692-0.077,1.196-0.362,1.518
				c-0.223,0.252-0.668,0.408-1.214,0.408c-0.526,0-0.903-0.084-1.203-0.389c-0.23-0.306-0.381-0.691-0.381-1.232v-0.305h-2.751
				v4.657h7.247v-1.868c0-0.693,0.146-1.199,0.444-1.453c0.229-0.318,0.693-0.479,1.264-0.479c0.629,0,1.024,0.16,1.312,0.476
				c0.224,0.248,0.368,0.756,0.368,1.457v3.782c0,0.607-0.133,0.97-0.334,1.148c-0.201,0.186-0.666,0.307-1.327,0.307h-12.828
				c-0.687,0-1.123-0.146-1.438-0.446c-0.314-0.234-0.473-0.701-0.473-1.281c0-0.603,0.15-0.992,0.458-1.301
				c0.238-0.246,0.69-0.398,1.22-0.398h0.232v-11.664h-0.232c-0.521,0-0.975-0.156-1.214-0.473
				c-0.311-0.314-0.464-0.707-0.464-1.312c0-0.569,0.159-1.043,0.478-1.274c0.316-0.304,0.753-0.455,1.434-0.455h12.828
				c0.654,0,1.119,0.125,1.32,0.312c0.203,0.187,0.341,0.554,0.341,1.168v3.478c0,0.701-0.146,1.211-0.373,1.528
				c-0.293,0.322-0.685,0.482-1.308,0.482c-0.569,0-1.034-0.16-1.263-0.486c-0.299-0.321-0.445-0.834-0.445-1.524V112.305
				L390.306,112.305z"/>
			<path fill="#1D1D1B" d="M412.192,119.016c0.233,0.166,0.526,0.488,0.754,0.889c0.092,0.103,0.113,0.138,0.132,0.162l2.562,4.064
				h0.172h0.325c0.57,0,1.047,0.152,1.37,0.395c0.32,0.305,0.479,0.695,0.479,1.305c0,0.58-0.158,1.048-0.479,1.281
				c-0.323,0.301-0.835,0.447-1.535,0.447h-1.907c-0.7,0-1.306-0.32-1.683-0.961l-0.028-0.02l-3.874-5.873
				c-0.154-0.271-0.26-0.449-0.506-0.521c-0.183-0.141-0.37-0.18-0.562-0.18h-1.499v4.125h0.285c0.546,0,1.004,0.151,1.248,0.397
				c0.306,0.31,0.46,0.699,0.46,1.301c0,0.58-0.156,1.048-0.469,1.281c-0.316,0.301-0.824,0.447-1.524,0.447h-4.001
				c-0.692,0-1.201-0.146-1.518-0.447c-0.314-0.233-0.479-0.701-0.479-1.281c0-0.602,0.154-0.991,0.466-1.301
				c0.304-0.246,0.696-0.397,1.236-0.397h0.293v-11.664h-0.293c-0.533,0-0.923-0.156-1.232-0.474
				c-0.314-0.313-0.47-0.707-0.47-1.311c0-0.57,0.163-1.043,0.483-1.275c0.319-0.303,0.824-0.455,1.512-0.455h7.208
				c2.218,0,3.904,0.466,5.003,1.324c1.162,0.857,1.708,2.101,1.708,3.793c0,1.18-0.325,2.201-0.911,3.055
				C414.267,117.98,413.378,118.636,412.192,119.016z M405.73,112.343v4.44h2.155c1.266,0,2.223-0.172,2.739-0.512
				c0.52-0.34,0.745-0.889,0.745-1.705c0-0.809-0.212-1.354-0.702-1.701c-0.487-0.352-1.225-0.522-2.267-0.522H405.73z"/>
			<path fill="#1D1D1B" d="M428.437,112.468l2.425,5.051l2.291-5.051h-0.038c-0.483,0-0.837-0.156-1.054-0.47
				c-0.285-0.309-0.359-0.706-0.359-1.313c0-0.584,0.079-1.055,0.368-1.284c0.223-0.298,0.691-0.445,1.329-0.445h3.516
				c0.693,0,1.196,0.147,1.508,0.445c0.313,0.229,0.469,0.7,0.469,1.284c0,0.607-0.154,1.007-0.46,1.313
				c-0.312,0.312-0.696,0.47-1.229,0.47h-0.286l-4.171,7.78v3.884h2.052c0.697,0,1.208,0.082,1.523,0.379
				c0.248,0.295,0.404,0.69,0.404,1.319c0,0.568-0.162,1.041-0.487,1.275c-0.257,0.301-0.767,0.453-1.462,0.453h-8.15
				c-0.692,0-1.198-0.146-1.518-0.447c-0.251-0.233-0.411-0.701-0.411-1.281c0-0.643,0.156-1.104,0.402-1.329
				c0.311-0.291,0.819-0.369,1.525-0.369h2.054v-3.408l-4.448-8.256h-0.229c-0.531,0-0.983-0.156-1.287-0.47
				c-0.24-0.309-0.393-0.706-0.393-1.313c0-0.584,0.154-1.055,0.467-1.284c0.246-0.298,0.749-0.445,1.442-0.445h4.105
				c0.641,0,1.045,0.147,1.339,0.449c0.232,0.233,0.379,0.702,0.379,1.28c0,0.604-0.075,0.996-0.36,1.312
				c-0.216,0.315-0.563,0.473-1.053,0.473L428.437,112.468L428.437,112.468z"/>
		</g>
	</g>
	<g>
		<path fill="#1D1D1B" d="M29.355,5.567H47.15L72.316,72.8h-18.3l-4.129-12.024H26.439L22.181,72.8H4.194L29.355,5.567z
			 M30.479,47.768h15.247L38.32,24.219H38.1L30.479,47.768z"/>
		<path fill="#1D1D1B" d="M86.289,5.567h34.267c11.876,0,23.554,5.375,23.554,18.924c0,7.265-3.497,14.129-10.549,16.869v0.176
			c7.136,1.704,9.237,9.69,9.783,16.101c0.176,2.829,0.489,12.732,2.835,15.163h-17.332c-1.511-2.248-1.788-8.84-1.966-10.72
			c-0.492-6.779-1.621-13.765-9.817-13.765h-13.286V72.8H86.289V5.567z M103.777,34.762h14.706c5.294,0,8.081-2.819,8.081-7.894
			c0-5.021-3.952-7.264-8.832-7.264h-13.955V34.762z"/>
		<path fill="#1D1D1B" d="M181.54,5.567h17.801L224.51,72.8h-18.261l-4.169-12.024h-23.453L174.406,72.8h-17.98L181.54,5.567z
			 M182.702,47.768h15.249l-7.438-23.549h-0.179L182.702,47.768z"/>
		<path fill="#1D1D1B" d="M249.618,50.194c0.398,7.933,5.283,10.449,12.735,10.449c5.279,0,10.749-1.876,10.749-6.859
			c0-5.933-9.602-7.052-19.322-9.785c-9.595-2.736-19.687-7.074-19.687-19.413c0.001-14.677,14.805-20.449,27.407-20.449
			c13.368,0,26.847,6.541,26.905,21.658h-17.49c0.308-6.095-5.464-8.072-10.806-8.072c-3.782,0-8.481,1.304-8.481,5.737
			c0,5.165,9.693,6.104,19.478,8.84c9.718,2.735,19.495,7.259,19.495,19.411c0,17.049-14.521,22.514-29.278,22.514
			c-15.44,0-29.104-6.771-29.204-24.031H249.618z"/>
		<path fill="#1D1D1B" d="M318.92,50.194c0.437,7.933,5.292,10.449,12.777,10.449c5.278,0,10.681-1.876,10.681-6.859
			c0-5.933-9.594-7.052-19.257-9.785c-9.606-2.736-19.688-7.074-19.688-19.413c0-14.677,14.764-20.449,27.395-20.449
			c13.371,0,26.801,6.541,26.923,21.658h-17.492c0.229-6.095-5.475-8.072-10.821-8.072c-3.836,0-8.512,1.304-8.512,5.737
			c0,5.165,9.729,6.104,19.509,8.84c9.661,2.735,19.509,7.259,19.509,19.411c0,17.049-14.521,22.514-29.288,22.514
			c-15.501,0-29.102-6.771-29.226-24.031H318.92z"/>
		<g>
			<rect x="374.518" y="31.665" fill="#1D1D1B" width="42.442" height="15.067"/>
			<g>
				<rect x="374.518" y="5.567" fill="#1D1D1B" width="49.313" height="15.068"/>
				<path fill="#1D1D1B" d="M374.518,57.736h49.313V72.8h-49.313V57.736z"/>
			</g>
		</g>
		<path fill="#1D1D1B" d="M468.19,4.137c21.208,0,33.117,15.563,33.117,35.065c0,19.47-11.909,35.023-33.117,35.023
			c-21.207,0-33.18-15.553-33.18-35.023C435.011,19.7,446.983,4.137,468.19,4.137z M468.19,59.163
			c11.31,0,15.621-10.005,15.621-19.96c0-9.995-4.312-20-15.621-20c-11.297,0-15.606,10.005-15.606,20
			C452.583,49.158,456.894,59.163,468.19,59.163z"/>
	</g>
</g>
</svg>
